/* XPM */
static char *Screen_Shot_2023_01_22_at_19_02_20_removebg_preview_removebg_preview_resized[] = {
/* columns rows colors chars-per-pixel */
"64 64 162 2 ",
"   c None",
".  c #050505",
"X  c #070708",
"o  c #070808",
"O  c #0B0B0D",
"+  c #0E0E10",
"@  c #0F1011",
"#  c #121214",
"$  c #151619",
"%  c #17181A",
"&  c #191B1D",
"*  c #1D1E21",
"=  c #211F20",
"-  c #1F2023",
";  c #212226",
":  c #24262A",
">  c #27292D",
",  c #292A2E",
"<  c #2C2726",
"1  c #2B2D32",
"2  c #382E33",
"3  c #332D31",
"4  c #2E3135",
"5  c #313236",
"6  c #3C3537",
"7  c #32353A",
"8  c #38373A",
"9  c #36393E",
"0  c #393A3E",
"q  c #462F32",
"w  c #4A2E31",
"e  c #582F32",
"r  c #433C3C",
"t  c #78282A",
"y  c #612C30",
"u  c #793539",
"i  c #373A40",
"p  c #3A3D43",
"a  c #4C3D42",
"s  c #3D4047",
"d  c #3F4248",
"f  c #464242",
"g  c #42454C",
"h  c #4D474D",
"j  c #45484F",
"k  c #4B4A4E",
"l  c #4B4341",
"z  c #584146",
"x  c #524A4D",
"c  c #59454B",
"v  c #58504F",
"b  c #464951",
"n  c #4A4D55",
"m  c #4C4F58",
"M  c #584D52",
"N  c #524D53",
"B  c #4D5057",
"V  c #4E5159",
"C  c #5B5454",
"Z  c #52555D",
"A  c #5D5459",
"S  c #55585F",
"D  c #5E5B5D",
"F  c #784247",
"G  c #794449",
"H  c #6B4A50",
"J  c #784C52",
"K  c #645157",
"L  c #795258",
"P  c #535760",
"I  c #565962",
"U  c #595D65",
"Y  c #5B5F68",
"T  c #635C64",
"R  c #735D65",
"E  c #5E6067",
"W  c #5E626B",
"Q  c #686567",
"!  c #61656D",
"~  c #69636A",
"^  c #66686E",
"/  c #706C6D",
"(  c #636771",
")  c #666A73",
"_  c #696D76",
"`  c #6A6E78",
"'  c #7A6C74",
"]  c #6D717B",
"[  c #747072",
"{  c #71757E",
"}  c #7C767B",
"|  c #942223",
" . c #8B3336",
".. c #923537",
"X. c #A12020",
"o. c #A13032",
"O. c #A63A3A",
"+. c #8E4549",
"@. c #9A4548",
"#. c #94474C",
"$. c #874B50",
"%. c #81585E",
"&. c #89585E",
"*. c #8D5459",
"=. c #915157",
"-. c #9C585C",
";. c #A44447",
":. c #C35D5D",
">. c #C16263",
",. c #C27172",
"<. c #737781",
"1. c #757983",
"2. c #797D86",
"3. c #7A7E89",
"4. c #897780",
"5. c #827A82",
"6. c #917780",
"7. c #957A83",
"8. c #7D818C",
"9. c #81848E",
"0. c #828691",
"q. c #868A94",
"w. c #898C95",
"e. c #8A8E99",
"r. c #928B95",
"t. c #8E919B",
"y. c #91959E",
"u. c #A98189",
"i. c #AF8D95",
"p. c #A38F98",
"a. c #B28B92",
"s. c #9296A0",
"d. c #9699A2",
"f. c #999DA6",
"g. c #9B9FA8",
"h. c #A49AA4",
"j. c #9CA0A7",
"k. c #9EA1AA",
"l. c #A2A5AD",
"z. c #B7A5AE",
"x. c #A4A7B0",
"c. c #A6A9B1",
"v. c #AAADB5",
"b. c #ADB0B7",
"n. c #AEB1B8",
"m. c #B2B5BC",
"M. c #B6B8BF",
"N. c #B6B9C0",
"B. c #BABDC3",
"V. c #BEC0C6",
"C. c #BFC2C8",
"Z. c #C3C5CB",
"A. c #C7C9CE",
"S. c #C8CACF",
"D. c #CDCFD4",
"F. c #CED0D5",
"G. c #D0D2D6",
"H. c #D4D6DA",
"J. c #D6D8DB",
"K. c #DADBDF",
"L. c #DDDFE2",
"P. c #E2E3E6",
/* pixels */
"                                                                                                                                ",
"                                                                                                                                ",
"                                                                                                                                ",
"                                                      8.9.q.y.g.f.y.0.9.1.                                                      ",
"                                                    _ f.y.t.l.v.v.g.y.k.q.                                                      ",
"                                                    U W U ] t.l.k.8.<.Y W                                                       ",
"                                              1.0.) n W g n { g.t.( n n Y b 2.9.{                                               ",
"                                          q.] ] k.q.m ) Z g d <.W 7 b U W U f.f.] 2.0.                                          ",
"                                      9.d.n.y.] M.v.U ] Y m d Y V d V ) ( ] V.v.2.v.c.t.8.                                      ",
"                                  <.t.v.N.L.G.8.2.8.n 2.W I p B j n I <.( I e.{ y.P.F.m.l.w.]                                   ",
"                          )   _ 0.s.b.F.J.A.f.U 1 4 1 8.( P W ] ) Y P 1.! : 5 , ! n.G.H.Z.v.t.1.  E !                           ",
"                        w.l.! Z t.n.C.V.y.W 9 ; % % : i 4 4 d n n p 4 7 7 * % $ : g { l.Z.Z.c.2.n 8.v.9.                        ",
"                      l.A.y.{ U ) c.t.W p - % - - & % * > 4 4 * ; 9 9 ; $ $ & ; ; % , k ] d.y.I ) 1.n.V.q.                      ",
"                    y.M.m.2.) 2.Z d d : $ * : - & 4 Z 1.d.g.8.B U t.f.8.U p ; % ; ; % % 1 g g ( 1.W t.m.v.9.                    ",
"                  y.t.d.k.8.U { ] * O # % * & , B 2.d.x.N.N.8._ ` s.B.n.f.e.) g > & & % # O p 3.) Y y.l.t.y.q.                  ",
"                  2._ U B U W ) Y % + $ % 1 V ] t.d.l.m.S.N.8.8.8.t.A.C.v.g.f.w.] n , $ $ O 7 _ ! W Z Z W 1.{                   ",
"                  g Z ! P B ( ) ; # # * P 9.s.l.j.8.3.e.8.9.k.8.y.j.1.w.w.1.e.k.k.y.1.d % @ @ i { I B U ! n g                   ",
"                8.` Z Y 1.) B : + @ 4 ` e.d.d.y.1.n B I ) q.B.t.k.n.] W V B I 8.y.d.s.8.U - @ @ i Z <.] I Y 1.2.                ",
"                y.m.N.! p j & # + 4 ] e.e.2._ ] B 1 1 1 W t.V.j.n.m.<.n , 4 7 W ` ` 8.y.q.W * + # > B d w.B.c.0.                ",
"              3.d.m.H.<.: # + + 7 <.q.q.) W n 1 , 9 i b ` q.M.t.x.n.<.W s 9 7 , 7 U W 1.e.8.W - + # # 9 x.G.x.e.2.              ",
"              q.g.Z.B.Z * # + > <.e.w.) d p > : 9 7 g _ ` s.N.e.k.M.e.<.W i i 9 - 4 d n 1.e.8.P + + # : 1.G.m.f.w.              ",
"            _ e.N.L.e.7 @ + O n 8.d._ 7 4 7 p i k Y ] <.s.n.N.e.j.N.v.8.] ) I i i s 1 4 d <.d.<.: o # $ m N.J.x.q.              ",
"            ( 8.n.n.I * # + * ( t.w.Z V I Y <.1.n S ` y.e.w.x.3.t.j.1.d.q.! V V <.) U P b V t.8.n + # # 1 9.N.l.3.W             ",
"            W f.k.W 1 + # + i 3.w.( ` ) m p i j S { c.9.m { l.3.e.j.P E f.s.W Y d i d U ] ( <.e.) ; + # # p 1.N.f.I             ",
"          ) 1.f.9.p % O O # P w.3.V j i p b p 1 b U 1.) m 2.v.3.y.k.W U <.] P b 7 d g i 9 j U t.8.d O O O ; I d.f.`             ",
"        j.l.m.m.q.Z p : + * ) t.( i : i p P ! V ( n n ] { q.v.1.t.v.1.<.W d I ( Y ( n i 7 - d 3.q.n O # 4 g W g.M.v.j.y.        ",
"      ) 8.t.v.l.2.U g ; + - U ] W : - 7 7 P 8.e.<.P d V 2.y.l.) 8.c.e.` d b W 1.w.<.g 7 4 - d _ ] g + $ 1 n ! w.c.k.w.{         ",
"        Z S ] { ` S p $ O : 7 b m - - 7 7 p U ) ( W ) 8.l.t.2.Z W 8.y.j.<.( W ) ( B 7 7 4 - 7 V d 4 % O 1 b ! { 2.! B g         ",
"        ! ) e.n.l.8.V * o - 1 i i * > 7 i 7 B ( ) 0.y.8.] E Z Z g j S { 8.s.<.) W g 9 7 4 > > p 4 4 $ + n ) t.n.x.2.Z p         ",
"        W m I t.8.k d * . * 9 7 i * : 7 d d : 9 8.j.! g ! { I Z B Z d p d 1.j.{ 7 1 b i 4 > : p 7 7 + o n B I t.8.j d 0         ",
"        ! m d ) I i d * . & 1 7 i % - 4 Y d i ] y.{ ] } ~ D I j S Q ) ` S j { k.) 4 Z m > - : p 4 1 + o B V d ) I p g p         ",
"        U Z p W B g B : . $ : 9 i % 4 I j 4 n W b h ' 7.7.' x j Z ' &.%.H l d B Y d 4 P m 1 > p 1 : + O b Z i W B p b p         ",
"        I I ! ` W P m 4 o * * i i 4 I B 1 p Y n 0 x F -.@.G R / T J  .@.t e h 7 V P 4 7 W Z 4 s 1 - O $ i n I <.<.) E Z         ",
"      { 8.f.M.Z.x.1.m i * * * i g ( ( 4 1 b <.p 3 K *.,.>.+.p.c.%.u O.:...y 6 1 m <.9 > d ] P s 1 - $ - s W 8.B.S.n.t.<.        ",
"        Y I ` ` U d > * $ + 4 d s n p : 4 g ` 1 , 5.u.;.o.=.l.2._ F | X.#.R 2 ; d ] 4 4 - d m i d - o $ - 7 n ( ] ! P W         ",
"          g I W j 1 + X X # d m i g : ; n Z Z ; 1 A 4.i.a.z.} j Z / *.$.L w 3 * 1 W n d - - d s P 4 . . o % 7 V ( B s           ",
"          ( e.v.q.m * X X * m P 7 4 * : ! U Z 1 : 0 M ' r.9.Q x B K c a w r , = 1 W W m * * 7 i W s o . O 1 ) f.b.8.S           ",
"          ( d.B.f.P * o X * P m 7 * * 7 I m U 9 - 1 Z S E Q } / [ ' K 6 8 g = * i W V m , * , i W d O . O 1 ) N.C.8.I           ",
"          ( t.N.f.m * o X * Y P 7 * p n j 7 U j : ; j ! Q / C x r r M 0 7 7 * = d P 4 n m i , s W m O o @ 1 ) N.B.8.I           ",
"          Y e.x.e.b * + o : ( Y i i b 4 > ; Z Z 5 & 5 ^ f 2 < < = = < b g * * i P d * 1 i n i d ) P @ o @ 1 W l.x.2.Z           ",
"          U q.y.<.d * + O > ( W j d 4 * i p d Y n > * p S 7 8 6 r l f Z , * 7 P P 7 d 4 - 4 d n ) I @ O @ > P q.s.<.B           ",
"          I 0.y.<.m - # O : W U d i * 1 d - * i P b : * Z ^ D v l r B p > 4 V S 7 % , d - - s b ( V # + @ 1 Y 8.t.<.Z           ",
"          I q.k.8.b * + O - Y P p - # p i - % % 9 V n p 0 Z n 6 1 7 s 8 d Z n 1 % - > d 1 @ 1 d W n @ + $ 1 U t.k.1.V           ",
"          S 0.x.8.b * O X * Y Z i $ + 4 m n j i 1 4 g W ) E B p s Z E ) S s , 1 s b n n - @ - s Y n o o @ 1 Y d.b.] n           ",
"          B 8.v.8.b * O + - Z b i > @ + - 1 7 d V d > 7 ) w.) > s 8.w.Z > 1 n Z s 4 1 - o @ 4 i V b $ O O 1 U f.n._ j           ",
"          B 8.v.8.d * o * i i i 4 d i 7 4 * @ % 4 B I g > d I > p S 7 4 B S d , $ @ - 4 7 i d 7 i p 1 $ O > P f.m._ j           ",
"          n 1.c.2.p % o o 4 p 1 - 7 p n ( V - : 7 i n ] ! j Z 1 g B s ] W d 8 9 - 4 W E d s , - 4 d * O O ; V s.v.! g           ",
"          d ] g.<.7 + o . 1 i : * > - 4 7 j i p > 1 - 9 U g U 7 j Z s U > > , , i d d 7 1 - - - > d * o o & b w.k.U             ",
"          p ) t.! 1 O o o 1 7 ; - 7 i p 7 4 p d 7 7 > > s i V 4 d V 9 p : 1 i , p i : s i i 4 - - i * O o % p 8.s.Z 9           ",
"          W 8.f._ 7 $ O o > 1 : 1 7 1 : - 7 7 d s 1 : 4 j i n n V d 9 d : : 7 d i 9 , : > 4 7 , - i * O + * d q.k.<.U           ",
"          W d.m.q.p & + # : > : i 1 % , 1 - $ - 9 7 > p b n ] n U ( d b 4 4 i 7 * % > 1 > % 7 4 - 4 * + + - P k.N.q.Z           ",
"        Z i B ` B 1 & $ & 1 , > d d , > - + @ - : : i P P <.] Z W 1.<.V V 4 : , * O @ > > > b 9 > 4 - % $ * i Y ) d d Y         ",
"      1.q.9.] ` ` ) _ Z 1 * & 7 n ( ) ` I 7 d B V V I W 8.) W ] <.I <.<.W V V V n 9 s W ` ) W d 1 % * i ( ) ` <.] 1.q.8.        ",
"      9.f.d.e.t.e.8.] Y d * : b I V V U Z U I V P V W 3.] V W ( ) V B 8.] I P P V W P Z U V Z Z p * > d ( <.8.s.t.t.g.t.        ",
"      <.8.3.e.e._ P P n i - 4 P ) ( ) ` ] ) ] ) ] ] <.W V U P I U Z W V ] ] ) ] ] ` _ ] ` ) ) ( d > - p Z P Y 1.e.0.3.3.        ",
"      ` 8.8.k.k.3.P m d 1 % 1 d d p g I n d V V d d V n n W _ m U ) W g B n d j V n s P B d p g p - * 4 d Z W 8.j.y.8.2.        ",
"      ( 3.1.0.0.( n d 4 - $ - i 7 5 9 j d p g s p g b n n j Z d b V g B b j d i d d p d g 5 5 9 7 & # ; 9 d Z <.8.8.<.<.        ",
"      P ) _ ] ) P d 7 : $ o % - ; - ; : 1 1 , , > > 4 j 7 7 9 5 9 i 7 d d , > > , 1 1 > : - * ; * @ O & 1 7 j U ) ] <.W         ",
"      g b Z B m d 1 - % O # > 4 4 1 4 7 9 p 0 0 0 0 p d         9 p 0 p s 9 9 0 0 0 0 7 4 4 4 4 1 ; + @ & ; 7 j V Z Z d         ",
"      n b b g i 4 > : : 1                                                                           7 > : : 1 9 p d b b         ",
"          S B Z n g j                                                                                   g d p m B Z U           ",
"                                                                                                                                ",
"                                                                                                                                ",
"                                                                                                                                "
};
