/* XPM */
static char *behelit_resized[] = {
/* columns rows colors chars-per-pixel */
"32 32 191 2 ",
"   c None",
".  c #2F0404",
"X  c #300202",
"o  c #310303",
"O  c #330303",
"+  c #340302",
"@  c #350302",
"#  c #340303",
"$  c #360302",
"%  c #370303",
"&  c #360403",
"*  c #370403",
"=  c #340404",
"-  c #350404",
";  c #340505",
":  c #370404",
">  c #380303",
",  c #380403",
"<  c #390403",
"1  c #390404",
"2  c #3A0404",
"3  c #3A0504",
"4  c #3A0505",
"5  c #3B0505",
"6  c #3A0605",
"7  c #3B0605",
"8  c #3D0605",
"9  c #3C0606",
"0  c #3D0606",
"q  c #3E0606",
"w  c #390808",
"e  c #3E0909",
"r  c #400707",
"t  c #410707",
"y  c #410807",
"u  c #410808",
"i  c #420808",
"p  c #420908",
"a  c #420A0A",
"s  c #430A0A",
"d  c #430B0B",
"f  c #440909",
"g  c #440A0A",
"h  c #450A0A",
"j  c #460A0A",
"k  c #470B0B",
"l  c #480C0C",
"z  c #4B0D0D",
"x  c #4C0E0D",
"c  c #4C0E0E",
"v  c #4E0E0E",
"b  c #4E0E0F",
"n  c #4E100F",
"m  c #4A1111",
"M  c #531011",
"N  c #521111",
"B  c #531111",
"V  c #511212",
"C  c #541111",
"Z  c #541212",
"A  c #551212",
"S  c #571313",
"D  c #581414",
"F  c #5B1515",
"G  c #5C1515",
"H  c #5D1717",
"J  c #5F1717",
"K  c #5B1A1A",
"L  c #591C1C",
"P  c #601818",
"I  c #611818",
"U  c #621818",
"Y  c #631818",
"T  c #621919",
"R  c #641A1A",
"E  c #661A1A",
"W  c #661B1B",
"Q  c #671B1B",
"!  c #621C1B",
"~  c #621C1C",
"^  c #611E1E",
"/  c #691C1C",
"(  c #691D1D",
")  c #6A1D1D",
"_  c #6B1D1D",
"`  c #6B1E1E",
"'  c #6C1D1D",
"]  c #6C1E1E",
"[  c #6D1E1E",
"{  c #6E1E1E",
"}  c #6E1F1F",
"|  c #6F1F1F",
" . c #7B2C1F",
".. c #72311B",
"X. c #6C2021",
"o. c #6F2424",
"O. c #702020",
"+. c #712020",
"@. c #722122",
"#. c #732222",
"$. c #752222",
"%. c #752322",
"&. c #762222",
"*. c #762323",
"=. c #772423",
"-. c #732424",
";. c #782423",
":. c #792424",
">. c #7B2525",
",. c #7A2626",
"<. c #7E2525",
"1. c #7C2625",
"2. c #7F2626",
"3. c #7E2726",
"4. c #7E2627",
"5. c #7F2727",
"6. c #7F2827",
"7. c #7F2828",
"8. c #7E2A2A",
"9. c #8B3C0C",
"0. c #893713",
"q. c #903619",
"w. c #812727",
"e. c #832A27",
"r. c #822828",
"t. c #822928",
"y. c #832929",
"u. c #822A29",
"i. c #842929",
"p. c #852929",
"a. c #852A2A",
"s. c #862A2A",
"d. c #872A2A",
"f. c #862B2A",
"g. c #872B2B",
"h. c #872D2D",
"j. c #872F2E",
"k. c #882B2B",
"l. c #8A2B2B",
"z. c #8A2D2C",
"x. c #8B2D2C",
"c. c #8B2D2D",
"v. c #8B2E2D",
"b. c #8C2D2D",
"n. c #8D2D2D",
"m. c #8C2F2F",
"M. c #8E2E2E",
"N. c #8F2F2E",
"B. c #8F2E2F",
"V. c #902F2F",
"C. c #8C3B28",
"Z. c #8E392A",
"A. c #953A20",
"S. c #91302F",
"D. c #9A3B2F",
"F. c #8D3030",
"G. c #8E3030",
"H. c #913030",
"J. c #923030",
"K. c #923130",
"L. c #933131",
"P. c #923331",
"I. c #943030",
"U. c #943130",
"Y. c #943131",
"T. c #953131",
"R. c #943231",
"E. c #943132",
"W. c #953232",
"Q. c #953332",
"!. c #963232",
"~. c #963332",
"^. c #973333",
"/. c #963532",
"(. c #97400C",
"). c #9E480E",
"_. c #8A4513",
"`. c #9D5211",
"'. c #915818",
"]. c #A75812",
"[. c #A45F14",
"{. c #9F611E",
"}. c #AC6014",
"|. c #B16B16",
" X c #AF7E1B",
".X c #B5721E",
"XX c #9A4224",
"oX c #9F4D20",
"OX c #A34B2C",
"+X c #AA6623",
"@X c #BA821B",
/* pixels */
"                                                                ",
"                                                                ",
"                                                                ",
"                                                                ",
"                                                                ",
"                                                                ",
"                              `.[.                              ",
"                        9.(.).].}.|.@X X                        ",
"                      _.0.q.A.XXoX.X+X{.'.                      ",
"                    .. .e.N.L.E.D.OX/.P.Z.C.                    ",
"                  ~ ` &.a.S.K.H.V.B.l.2.@.X.^ L                 ",
"                m V S Y r.H.L.S.g.4.[ Q / ) ! K                 ",
"                w e n ( %.>.Y.^.!.Y.H.b.s.5.,.o.                ",
"                ; d P F Z T M.!.W.T.Q.!.~.^.W.G.                ",
"              = = a N p N U d.U.T.J.b.z.v.S.W.Q.j.              ",
"              O - y u 5 A ' n.J.I.x.| $.w.p.x.R.F.              ",
"              # : 8 3 9 x U i.n.c.s.Q ) +.<.3.v.m.              ",
"              @ > 1 , % 5 4 h J :.f.O.W ( _ $.a.h.              ",
"              X + , $ $ 2 4 l I +.3.t.;.} ] *.k.8.              ",
"                o $ < 0 k v C G E { $.1.6.7.y.u.                ",
"                . O # & 6 s z b B F R _ O.#.=.-.                ",
"                    o # & * 7 u j l c M D H                     ",
"                        4 5 q r t i f f g                       ",
"                                                                ",
"                                                                ",
"                                                                ",
"                                                                ",
"                                                                ",
"                                                                ",
"                                                                ",
"                                                                ",
"                                                                "
};
