/* XPM */
static char *Screen_Shot_2023_01_22_at_16_33_59_resized[] = {
/* columns rows colors chars-per-pixel */
"64 64 69 1 ",
"  c #273540",
". c #283640",
"X c #293B42",
"o c #2C4244",
"O c #2E4C45",
"+ c #2B4549",
"@ c #2C4C4C",
"# c #304540",
"$ c #334A41",
"% c #2F5046",
"& c #2D514F",
"* c #345343",
"= c #385641",
"- c #345946",
"; c #3B5C41",
": c #315648",
"> c #335D49",
", c #2E5753",
"< c #2F5953",
"1 c #315C52",
"2 c #3E6242",
"3 c #3D6B46",
"4 c #34634A",
"5 c #366C4C",
"6 c #3B6C4E",
"7 c #37704D",
"8 c #3A744D",
"9 c #3A7C4F",
"0 c #346351",
"q c #386650",
"w c #356D51",
"e c #386E50",
"r c #377350",
"t c #387650",
"y c #397850",
"u c #416640",
"i c #446C40",
"p c #457343",
"a c #4A7640",
"s c #477846",
"d c #4C7B40",
"f c #42754C",
"g c #457B4B",
"h c #51863F",
"j c #558D3F",
"k c #57923F",
"l c #5A963F",
"z c #5C9A3F",
"x c #5FA13F",
"c c #61A63F",
"v c #63A93E",
"b c #3E804E",
"n c #468047",
"m c #4E8141",
"M c #4E8B46",
"N c #43844C",
"B c #4C8549",
"V c #46894B",
"C c #498C49",
"Z c #508440",
"A c #518C44",
"S c #4F9247",
"D c #4C9048",
"F c #549445",
"G c #599640",
"H c #559944",
"J c #5B9D42",
"K c #5DA241",
"L c #60A440",
/* pixels */
",,,,,+  Xkvvz$..X&,,,,,,&...+,,,,,,,0999yby9%XXXdvvvvvvz= .X@,,,",
",<,<,X  ojvvx$..X,,,,,,,&X..X,,,,,,,0b99byb9%  Xhxvvvvvc= .X&1,,",
"w1,,,X...;iu2O++@,,,,+++X...+,,,,,,,gHSSVyby1++@Mvvvvvvz$ .X4eww",
"y0,<,+......X,<<<,,,&X..X...X,,,,,<,NLLLHyyyw<,<Mvvvvvvx=  X7yyy",
"y0<<,X ...X X@,,,,,,&X....  X,,,,,,,gLLLSyyyq,,<Avvvvvvc*..X5yyy",
"9w<<<+XXX.. X,,,,,,,&....XX +,,,101fBLLLMfyyq,,<BxKJvvvz*..X8bbb",
"KNttt7575o   ,,,,,,,&X..X&,&,,,,fFLLLvLLa++X&,,<06q6Fvvc= .#FKKK",
"LCybyb9byo  X,,,,<,<&...X,,,,,,,fLvvLvLLi.. @,,<,,,<Avvc$ XokvLK",
"xD999999yo .X&,,,,,,&.  X,,,,,,,fLLLvvvvi   +,,,,,,1Fvvx= .#kvvx",
"Lb999rr75o..X&,,,&@&&=;2:,<,,,,,fLLLvvvvd;;;<,,,,,,<shhm=#O=kvvv",
"vD9990<<,o ..&<,&X..$zLLA1<<,,,,FvLLvvvvvvxxg,,<,,,,oXXo5989Kvvx",
"KC99t0,,&o...,,,,...$xLLF1<<<,,,gLLLvvvvvvvLg,,<,,,,oX X599bKvvv",
"vD9990,,,X  X&,,,X..=vvvF1<<,,<1gLvvvvLvvvvvs<1<,,,,X..XwbbbKvvx",
"x9:%&,,<,&@@@+++$idadvvvF1<<4BBBJLvvzduuZvvvGBAk6,,,@@@@NHSKxxvx",
"x2...&,,,,,,,X  #zvvvvLLF1,,fvvvLLLvd.. ivvvLLLvf,,,<,<<Hxvvvvvx",
"v;...@,,,,,,&X  $xvvvvLLF1,,8vvvLLLLd...ivvvLLvLf,,,,<<4Hvvvvvvx",
"x2...@<<,,<<,.  $HvvvLLLD>&,7xvvvvvvdXXopvvvvvvvf,,,<,,1FLKKLLLL",
"v;...%<,,,<<,X  #JvvLNNN7oXX2xvvvvvvD777Mvvvvvvvf,,,,,,<fNbVKLLL",
"v;..X@,,,,,,,X  #JvvKbyy5   ;xvvvvvvF999Svvvvvvxt,,,<,,<rbybLvLv",
"x;..X@,<,,,,&X  #zvvKbyb5   -xvvvvvvH999Svvvvvvvf,,,,,,<rybbLvvv",
"h*.X +@@&,,,,++X-KvvKby97OOOivvvxHHHC999nhhhHvvvBfff1,,<8999Mhhd",
"...  XX .&,,,,,,qKvvKb999y9yCxvvHb9b9999-XX.dvvvLLvLe,,,8998OXXX",
"..      X&,,,,,,qJLvKb999b9bCxvvH9999999:...dvvvLvvLf,,,8y98o...",
"..X  X  .&<,,,,,qJLKKby9999bCxvxH9999999-..XavvvvvvLf&,,rb98o...",
">o......XpMMB1,,qJvvKb9999997u22;%%%599954>4Mxvvvvvvbww7y99y444:",
"9O......XkvvLq,,0JvvKb9999995.    . %999b999Hvvvvvvvb9999999b99y",
"9%......ojvvJq,,qKvvxb9999994.  ....%9999999HxvvvvvxCbb99999999y",
"9O..... XkvvL610qGzzk888y9995oXoX...:9999999DKKKxvvxb7879999999y",
"9O......#jvvvJJJF=###oXo%y99y777>...:9999999e045Hvvx;Xo#7999999y",
"9O....  Xjvvvvvvl#  ... oy99999b4...%b99by990,,<Dvvx; .X5999999y",
"9O..... #jvvvvvvl# ...X.oy9999b94...%99byyy90<,1Mvvv; .X59b9999y",
"8O...oo+#Gvvvvvvl# .....Oyb999994...O444wrre0<,,BHHH* .X:444y99y",
"yO.. &,,1Gvvvvvvl#..... O79999994....X..+,,<<,,<r999O ....XX799y",
"f@...&,,1Gvvvvvvl# .....O99999994.......+,,,,,,<r99yO .....X7b9y",
"y% ..&,,1JLvLvvvl$ .... #79999994.......&,,,,,,<r99yO .....X799y",
"y%.  &,,,ffggLvvxhahaX...%%%>9994.......+,,,<,,<w999544>o..X7b98",
"y: ..&,,,,,,0JLvvvvvlX......O9994.......+,,,<,<<ry99999yO..X599y",
"y$  .&,,,,,,1Jvvvvvvk#.... .O9994.......+,,,,<<<r999999yo..X79b8",
"8*###&,,,,,,1JvvvvvvlX...###-bbb4....Xo.&,,,,&&&w999999y%XX#5877",
"oaJGJq,,,,,,qKvvvvvvlX. *kzlxxxxsX..+&&,,,,,+.Xo49999999y775OXoo",
"Xmvvv6&,,,,,0Hvvvvvvlo  *xvvvvvvh...+,,,,<,,+...<rbbbtbtb9bro  X",
".mvvcf,,,,,,0JLLvvvvk#  =xvvvvvvd . +,<,,,,,+...4bbbbbtb99b7o .X",
"XmvvLBfff1,,1gAAjxvvj#  =xvvvvvvh%%%&<<,,,,,o...&444wbbt7ww5o..o",
"XmvvvvcvJw,<<<1<5zvvk#  =xvvvvvvH9y9w,,,,<,,+...   X<bby4,,,X..X",
"XZvvvvvvK5<,,,,,4xvvk#  =xvvvvvvH999w,,,,,,,+ ..   X5byy0,,&X..o",
"XdvvvvvvKw<,,,,,5xvxko  *xvvvvvvH999w<,,,,<&+.X. X X4ybr1,,,X..X",
"%Zvvvvvvx5,,,,,,1bVCb44>pxvvk;;;3999w,,,@+++3hdh7:54rbb91,,,&@O&",
"1Mvcvvvvx7,,,,,,1999b9bbVvvvhX  O999w,,,+. .avvxbbbb999b1,,,,,,1",
"1FLLvvvvxf,,,,,,,bbbbbbbbHvvhX. @bbbw,,,O...avvcVbbbbbrb,,,,,,,<",
",gzxlvvvxf0u11,,,bbwbwbbbDvvhX .@bwbr,,,O...avvvVbbbrbbr,,,,,,,<",
"<O##$kvvxLxLFq,,,bbrw<<<bKvvhX..@bwbbbwb: .Xavvvbrbbrbbb<,,,,,,,",
"<X  XjvvLLLLKq,,,wbbw,<,bvvvhX..+bbbrbbr: ..avvvbbbrbbrbw,,,,,,,",
",X..XZvvvvLLKf,,,bbbb<,,wxvvhX..@bbbbbrb:   avvvVbbbrbbb,,,,,,<,",
",@++OAvvvLLLJ1++@wwww<,,4bdbuX..+wwwrrbb5%%%Zvvvbbbr4,44www<<,,,",
",,,,1FLvvvLLJ$   ,,,,,,,&X X....+,,,wbtbbtbbSvvvVbbb+  Xwbbrw,,,",
",,,,1FLLvvLLJ$  +,,,,,,,@   ....+,,,4tbbtbtbkvvvDbbbO  X<bbb,,,,",
"<,<,1ALLvvvvx$..X,,,,,,,@X    X +&,,wbrbbbrrbvvxD999%..X5b9t:,,,",
",,<,<;;;iLvvx$..X&,,,,,,@X  +@@@@,,,wbrbtbbb74;4VHHzhhhn:+%%:,,,",
",,,<,X. #kvvz$..X,,,,,,,&X  +&,,,,,,<rbbbtbb%  .dvvvvvvx%  X,,,,",
",,,<<X..Xlvvz#..X,,,,,,,&   +&,,,,,,wbbrybyb:  .hvvvvvvx%  X&<,,",
"1<<,,XX.Xdlzj$XX+&,,&&&&@X  X,,,,,,,wbbbbbbb:XXXdvvvvvvx%  X,,<<",
"f1,<<X..XX#X#&&&,,,,&+XX  X +,,,,,,,bDKKbbbbw&,,jvvvvvvx:  X5bbb",
"y0,,<X..X. .X&<<,,,,&       +,,,,,,,bvvvbbtbw&:<Dvvvvvvx%  Xwbbr",
"y0,,1X......X&<,,,,,&XX  X  +,<,,,,4bvvvbbbtw,::Dvvvvvvc%   wrbb"
};
