/* XPM */
static char *Screen_Shot_2023_01_22_at_19_03_19_removebg_preview_resized[] = {
/* columns rows colors chars-per-pixel */
"64 64 85 1 ",
"  c None",
". c #050505",
"X c #070708",
"o c #070809",
"O c #0B0B0C",
"+ c #100D0E",
"@ c #0E0F10",
"# c #100E10",
"$ c #0F1011",
"% c #121214",
"& c #161619",
"* c #17181A",
"= c #191B1D",
"- c #1D1E21",
"; c #1F2024",
": c #212226",
"> c #242629",
", c #27292D",
"< c #282A2F",
"1 c #2B2D32",
"2 c #2E3136",
"3 c #303237",
"4 c #32353A",
"5 c #36383E",
"6 c #373A40",
"7 c #3B3D44",
"8 c #3D4047",
"9 c #3E4148",
"0 c #42454C",
"q c #45484F",
"w c #464951",
"e c #4A4D55",
"r c #4C4F58",
"t c #4D5057",
"y c #4E515A",
"u c #51555D",
"i c #545760",
"p c #565962",
"a c #595D66",
"s c #5B5F68",
"d c #5E626B",
"f c #61646E",
"g c #65686F",
"h c #636770",
"j c #666973",
"k c #696D76",
"l c #6A6E78",
"z c #6D717B",
"x c #71747E",
"c c #727680",
"v c #767A84",
"b c #797C86",
"n c #7A7F89",
"m c #7D818C",
"M c #81858F",
"N c #838791",
"B c #868993",
"V c #898C95",
"C c #8B8F99",
"Z c #8D9097",
"A c #8D919A",
"S c #91959E",
"D c #9296A0",
"F c #9599A3",
"G c #999DA6",
"H c #9EA2AA",
"J c #A1A5AD",
"K c #A5A8AF",
"L c #A6AAB2",
"P c #AAADB5",
"I c #ACB0B7",
"U c #AEB1B8",
"Y c #B2B5BC",
"T c #B5B8BF",
"R c #B7BAC1",
"E c #BABDC3",
"W c #BDC0C6",
"Q c #C2C5CA",
"! c #C7C9CE",
"~ c #C8CBCF",
"^ c #CBCDD2",
"/ c #D4D6DA",
"( c #D7D8DC",
") c #DADBDF",
"_ c #DBDDE0",
/* pixels */
"                                                                ",
"                                                                ",
"                                                                ",
"                           zvvBAAMbbz                           ",
"                          uAGCJPPHSHAu                          ",
"                          0dalBJJBcsd0                          ",
"                       fch0s0wlFFlrwa0hvh                       ",
"                     bxkGSuhpq6kk6qihuSHcxb                     ",
"                   vCPKkLTfldu7ip7yfkfTEnJIZx                   ",
"                 hMLT))VxBrxkiqee0akxtVxM)(YLCl                 ",
"             yw vSL~/^Kk33,xludlldilx>3>uK^)~IFvr0t             ",
"            xJzrBPWQGj7>**:5337ee8325:=&:7gGQQIBexKM            ",
"           VQKxdsJGk0>=-:=*%@OO+OOO+%*-:-=>0kSGsfxJQB           ",
"          MUTVfbs78<&=::*++          %%&->**,88avfMUUm          ",
"         MSSJVazb<O%*=&%+              &&*=*%+<blaVJSSM         ",
"         vzaypdhg>O%%&%                  -:%&+>gjfutaxv         ",
"         7yfpuaz1%%O>w                    h<o%%1xayufy8         ",
"        zxpazzu3%OO-7f                    mq,$O%2uxcppxx        ",
"        BPWx6e:%O%<4:d                    b10q=O%-r8vEPV        ",
"       kSI/C1%%O*rr><f                    v33pu-+%%>A/PDx       ",
"       mGE!h>&@$iu1;5k                    b7,3aa%O%:g!EGV       ",
"      aNI)J9%$X>h4,3uz                    bp547z3X%%7J_ICk      ",
"      avLTl:%@O0s0e0aj                    xfeuyvpO+%:kTLBa      ",
"      pCPz3$%O-ia9,5pa                    sf83qmz=O%%5kILa      ",
"      zSAe-OoO1aw;<20d                    fw0y7xn1OoO=wSJx      ",
"    ZJYTSp7,%O3d7-4w7d                    h0df7fm5%%<0pSYYGA    ",
"   uvZKLMsw,%%1q2*1wwh                    hyhd3pf3%%>waMJJCvu   ",
"    qukxxa0-O*3<:*:wd                    auhfq300q>+:0axbku5    ",
"    yhMPLBa,.%3=*-;qa                   zGxua8553a1O6kBLLBp5    ",
"    yuyBBy8,.O5-&-,e                   dGINpg0754l<.0urBVy83    ",
"    uu7ff70,.O2=&<29                   xKKSgu0053a,.0i7fd793    ",
"    wp7ap7u<.o<&-<,4                  izBKHvqqe7<y>.6a6pp6e3    ",
"    updkhuy6$O;&,>,                    hvl9yyaew19;$4euzvjdy    ",
"    bSTQIna7<&;*1;,                    dd1;4yp9r27,;7pmU~RDbp   ",
"    eujzdw2-&@;<:;2                    aa9yjda899>%$-1wdzjut    ",
"     2idr1$X.o<6:>7                    09lfu9l9wu<%oo%1efu2     ",
"     iBLAa>OXo>9;-5                    00e1,5d79a<*@o;aSICy     ",
"     yVRLd;Ooo;9>,<                    er7;>7rq9d<-$@;dP!Ay     ",
"     yBYLa>@oO>q<;=1                    i01>047ed,-$@>aLWVy     ",
"     rmHGy>@o@>9,&:1                     y02r84ef>-&@;uGPBt     ",
"     wmDmr;$@@>9,=*;3                    77e7>4wf<;*$;rnDmw     ",
"     wnDnu>$@O-7;--*3e                    aa2348a>;*$>unSnw     ",
"     wmHBy>$@o-6=-22:4                    y7yi24i;-*$,uBHmw     ",
"     9nJAy>@X.*4=oO=52                    6i6;*6p;-%@>yCUm9     ",
"     7cLAy:Oo%:1:,;%25                    wy1100q--$O:yAYn7     ",
"     7cLAe;O&17**23-=,                    635ay66u6-o-rCRv6     ",
"     6lHVw=o.=w=$;;-*>                    5379416z4%O-wBIc6     ",
"     4jFn7&X.&0-&;-:-5                    w777747c1Oo*7nJj4     ",
"     1aCz3%o.*7&&&%$>9                    y9,>334f<@X$4zFd1     ",
"     unGb7*Oo&5&&@o&68                    ea1&:24a>@@&7vHmu     ",
"     uAYDw-@O*2&:<>195                    0de8q96a1&@-eDRAy     ",
"    w6wja2-&&;7-307qw6                    wlxkhp6w1-&-2pzy6t    ",
"   dMBclzjka3-*-20w621                    7udzza4-;2aljllvNNd   ",
"   kFFACAmcdw>$,072<2,                    6rrydlw*;7dcmAAAFFk   ",
"   smvBCzaiy8;%122,;-=                    1660yyw*-6yiacCBvmd   ",
"   inmGLmpr02=$:,;*%                       3117w8&*19yanGFmmu   ",
"   rvvmNzy84>&@-*%%                          3232%%-49rlmmvvy   ",
"   qhlzla94<*o@$%                              3>@o%<49ajzlh9   ",
"   6quyy02;*@O@                                  @@@*;20ruuw7   ",
"    9q074<,>:-                                    -:>,<469w9    ",
"     q77623                                         232677q     ",
"                                                                ",
"                                                                ",
"                                                                "
};
