/* XPM */
static char *Screen_Shot_2023_01_22_at_15_56_43_removebg_preview_resized[] = {
/* columns rows colors chars-per-pixel */
"64 64 151 2 ",
"   c None",
".  c #030303",
"X  c #0A0604",
"o  c #0F0608",
"O  c #0E0D0C",
"+  c #110C07",
"@  c #190D05",
"#  c #13070A",
"$  c #140C0B",
"%  c #1B0B0D",
"&  c #1A1107",
"*  c #16110D",
"=  c #1B120C",
"-  c #1F190A",
";  c #0F0F10",
":  c #100F10",
">  c #141313",
",  c #1A1513",
"<  c #1D1815",
"1  c #1B141C",
"2  c #171818",
"3  c #1D1C1B",
"4  c #230C0D",
"5  c #280F0E",
"6  c #23130C",
"7  c #24190E",
"8  c #270E13",
"9  c #2A0E13",
"0  c #231315",
"q  c #2D1216",
"w  c #221A15",
"e  c #2C1A15",
"r  c #2E1218",
"t  c #231E1B",
"y  c #2D1C1D",
"u  c #331517",
"i  c #351916",
"p  c #391D15",
"a  c #311118",
"s  c #311D1F",
"d  c #3A1C19",
"f  c #29200F",
"g  c #2E2415",
"h  c #25221D",
"j  c #2A231E",
"k  c #2F291F",
"l  c #332314",
"z  c #3D2314",
"x  c #3E2814",
"c  c #31221B",
"v  c #3E2219",
"b  c #3A2D1D",
"n  c #3C3315",
"m  c #1F1E22",
"M  c #1D1728",
"N  c #2F1F22",
"B  c #252321",
"V  c #2B2622",
"C  c #2E2924",
"Z  c #2B2A29",
"A  c #332023",
"S  c #322B26",
"D  c #3E2D27",
"F  c #332D29",
"G  c #382F2A",
"H  c #2F302F",
"J  c #3E3222",
"K  c #34302C",
"L  c #3A322D",
"P  c #2D2C32",
"I  c #302F36",
"U  c #2F3030",
"Y  c #343332",
"T  c #3C3631",
"R  c #3D3933",
"E  c #3B393C",
"W  c #402614",
"Q  c #442B13",
"!  c #482F17",
"~  c #41231C",
"^  c #452A1C",
"/  c #4B2D1C",
"(  c #433112",
")  c #4B3216",
"_  c #45311A",
"`  c #4D341A",
"'  c #50361D",
"]  c #533A1D",
"[  c #583F1F",
"{  c #472820",
"}  c #4B2E20",
"|  c #433523",
" . c #4F3522",
".. c #493B24",
"X. c #41372E",
"o. c #453A2D",
"O. c #563D20",
"+. c #583F21",
"@. c #413731",
"#. c #423A35",
"$. c #483B36",
"%. c #463D38",
"&. c #493F3A",
"*. c #5C4223",
"=. c #5D462C",
"-. c #5E492A",
";. c #4F4331",
":. c #45413D",
">. c #4B423D",
",. c #624324",
"<. c #684522",
"1. c #624927",
"2. c #604629",
"3. c #654C2A",
"4. c #684E2C",
"5. c #6D522E",
"6. c #705530",
"7. c #3D3B42",
"8. c #444544",
"9. c #4B4642",
"0. c #4D4944",
"q. c #4B4B4B",
"w. c #504641",
"e. c #524A45",
"r. c #594E43",
"t. c #554E49",
"y. c #584F4A",
"u. c #55504C",
"i. c #5A524D",
"p. c #545251",
"a. c #5C5651",
"s. c #565856",
"d. c #5D5854",
"f. c #595A59",
"g. c #615A55",
"h. c #645E59",
"j. c #66615C",
"k. c #6B645F",
"l. c #646361",
"z. c #6D6662",
"x. c #6F6863",
"c. c #6B6C6A",
"v. c #716A66",
"b. c #746D69",
"n. c #76716C",
"m. c #79726D",
"M. c #787775",
"N. c #7A7874",
"B. c #797978",
"V. c #817F7B",
"C. c #8E8D89",
/* pixels */
"                                                                                                                                ",
"                                                                                                                                ",
"                                                                                                                                ",
"                                                                                                                                ",
"                                                                                                                                ",
"                                                                                                                                ",
"                                                                                                                                ",
"                                                                                                                                ",
"                                                                                                                                ",
"                                                                                                                                ",
"                                                                                                                                ",
"                                                      S C   j j S                                                               ",
"                                              S S V L &.G S S S @.#.G S S                                                       ",
"                                            V R L S &.i.%.w.u.K %.y.#.F L V h                                                   ",
"                                        S T S t.e.D 9.h.i.k.k.>.&.i.&.L T A T G                                                 ",
"                                        R h.%.h.h.&.y.m.v.n.k.>.w.y.t.&.@.T g.:.                                                ",
"                                        L i.u.j.d.y.k.N.v.b.j.w.i.r.i.i.>.>.a.:.                                                ",
"                                        C 9.j.g.t.i.b.k.b.k.i.>.i.>.j.k.r.i.y.K                                                 ",
"                                        B R i.h.i.j.b.g.k.j.e.y.>.>.a.j.u.0.K h                                                 ",
"                                        j R a.d.r.a.x.y.j.a.t.y.#.@.>.:.L L Y j                                                 ",
"                                        3 H u.t.>.a.j.i.i.t.w.w.#.:.a.g.0.0.R h                                                 ",
"                                        < j S F :.i.y.a.i.u.t.>.:.>.a.g.e.:.h > 2                                               ",
"                                      < > h C S T R T 9.u.e.>.T C V C V j h 2 * ,                   Z                           ",
"                                      2 - j R K K F C K K C B V h < h j j j , * 2                 t < t                         ",
"                                        , j @.L F K V V V t t h h < t B V k , * ,                 1 , 2                         ",
"                                        * < K V S R S F S S V V j < , < < h , *                   O > m                         ",
"                                        < , h < k #.L S G S S G j , < < , < *                 3 O ; P 7.                        ",
"                                          * * * w G K h G V j G < = < - * , *               < O ; P 7.                          ",
"                                          m * $ * j G w S j w j * , > * + &           n g > X > P E                             ",
"                              3 m Z 8.q.U M i 6 & w w , j w , w * * & & 7 l ) o.p.p.k - * . O B E                               ",
"                            3 m B q.M.M.q.G ,.<.*._ = = w < = = $ + x *. .A J i.M.n.T o . . O h                                 ",
"                            m U m 8.c.c.9.L J } / W 5 0 q 0 0 0 6 % p / v 1 Y l.V.n.;.O . . = b                                 ",
"                            m Z 8.8.8.:.K Z N : % 8 9 a a a a a 9 5 4 4 4 j Z 9.d.u.R V j f ( 1.                                ",
"                              : Y f.c.c.l.q.3 $ $ 8 a r a a a a a 5 8 % 0 s y A D o.:.w.>.;...-.                                ",
"                              . ; U q.s.q.Y O $ 0 0 8 r a a a 9 9 0 8 , 0 a a a p ^ $.h.V.V.a.                                  ",
"                              X ; ; : 1 , % 4 9 a q 8 a a a a a a q q q a a p p z p N 8.C.C.j.                                  ",
"                              X > > > 0 u p a a a a a a a a a a a a a i p z Q Q W i > 3 d.j.                                    ",
"                              X > > 1 r u p p u q a a a a a a a a a i ^ ] Q Q W i 0 < 2 h Z                                     ",
"                              o 8 , 0 a a u W p a a a a a a a a a a ^ [ [ Q z q 0 0 q , O *                                     ",
"                              # q < e p u a W ^ ~ i a a a a a a a a / ' z p e e e r 0 > O :                                     ",
"                              = z w f Q z i z ' *.O.^ d a 9 a a p p W W i e w l z q < > O >                                     ",
"                            r d _ l x ) ` p u p ' *.*.O.} { ~ ~ ` ! Q W i < l z e 0 < 2 > 3                                     ",
"                            0 D 1.` Q [ 3.' v i p W ) *.4.3.+.[ [ ) W i 0 0 q 0 2 > 2 q 0 2                                     ",
"                            0 v 1.` Q [ 5.4.[ d q i z W +.[ ' +.! z i e e a 9 , > > , p u 0                                     ",
"                            0 ^ <.` Q [ 5.6.4.+.b w q u z W W z q 0 e f z u , , > > , i u 0                                     ",
"                            c O.4.` Q [ 6.6.6.5.*.^ c u a a a a 0 w l W z q 2 w w 2 , p u 0                                     ",
"                            _ 4.1.) Q ] 4.5.4.4.4.5.2.{ d d d d v x Q z a q 0 i i , a i u 0                                     ",
"                            ..1.[ ( W Q ] 3.' ! O.3.4.3.O.O.[ ' *.` W p a a i z g , u p i 0                                     ",
"                            | 4.,.~ u z ' 4.' z z ! ' ,.3.[ ' *.) Q p a a u z p q 0 a i u 0                                     ",
"                            J 4.] W u p ' 4.4.^ a p W ! ! Q Q ! Q W p a u W Q p r r i p u 0                                     ",
"                            J 4.+.~ u i ` 3.5.' p u u W p W p p W p a a p Q Q p r i z d u 0                                     ",
"                            J =.^ z i u z ' 3.[ W u a u p p p W i a a p W Q Q i a a p d i 0                                     ",
"                            J 2.^ i a a i ) 3.-.` p a a u a a a a a a p Q Q p a a a z p a 0                                     ",
"                            b *.^ p a a i ^ 1.3. .W a a a a a a a a a p Q W i a a i W u a 8 2                                   ",
"                            7 ^ p p i a a p / *.+.W a a a a a a a u p Q Q Q u a a a p p i % O                                   ",
"                            @ q a u a a a i W ) +.[ W u a a a a a p Q Q Q W u a a i p i q $ O                                   ",
"                            $ $ # 8 r 9 a a i z ) ) Q z u a a a u W W Q W i u a q a q % o *                                     ",
"                                  $ # # % a a i i z W Q z i q 9 5 u i p u a 9 4 # # #                                           ",
"                                            % # o @ & & & % # # @ # # # # %                                                     ",
"                                            =         @ X     X @         6                                                     ",
"                                                                                                                                ",
"                                                                                                                                ",
"                                                                                                                                ",
"                                                                                                                                "
};
