/* XPM */
static char *Screen_Shot_2023_01_22_at_15_49_26_removebg_preview_resized[] = {
/* columns rows colors chars-per-pixel */
"64 64 202 2 ",
"   c None",
".  c #040403",
"X  c #0A0706",
"o  c #040C03",
"O  c #0B0905",
"+  c #0C0708",
"@  c #0C0C0B",
"#  c #130D06",
"$  c #120D0B",
"%  c #1A0C0B",
"&  c #180E05",
"*  c #041303",
"=  c #0B1506",
"-  c #021903",
";  c #0F130D",
":  c #0D1B0C",
">  c #0F1907",
",  c #1B1307",
"<  c #13110D",
"1  c #1C150A",
"2  c #111C0F",
"3  c #150E10",
"4  c #141313",
"5  c #1B1514",
"6  c #151814",
"7  c #1C1A15",
"8  c #171819",
"9  c #1C1B1A",
"0  c #18171B",
"q  c #231506",
"w  c #201B06",
"e  c #251B0C",
"r  c #2A1D0A",
"t  c #281D07",
"y  c #210B10",
"u  c #241316",
"i  c #211B15",
"p  c #2C1B14",
"a  c #221D1B",
"s  c #2A1C19",
"d  c #2B1317",
"f  c #341F14",
"g  c #0C210B",
"h  c #1D2507",
"j  c #1E221C",
"k  c #1B2616",
"l  c #2D2808",
"z  c #312507",
"x  c #372A07",
"c  c #382E08",
"v  c #392307",
"b  c #39310D",
"n  c #2D2215",
"m  c #24221E",
"M  c #29231D",
"N  c #342313",
"B  c #392613",
"V  c #3B2B14",
"C  c #32261B",
"Z  c #362817",
"A  c #3E3016",
"S  c #242423",
"D  c #2A2522",
"F  c #262825",
"G  c #2D2A25",
"H  c #272828",
"J  c #2C2C2B",
"K  c #322A25",
"L  c #392C22",
"P  c #342E29",
"I  c #382F2A",
"U  c #2F302F",
"Y  c #2E3127",
"T  c #3D3127",
"R  c #33312E",
"E  c #3B322C",
"W  c #2F2E35",
"Q  c #343432",
"!  c #3D3631",
"~  c #3A3934",
"^  c #373838",
"/  c #3D3C3C",
"(  c #452D0D",
")  c #443407",
"_  c #493B07",
"`  c #403208",
"'  c #4B350C",
"]  c #493214",
"[  c #433019",
"{  c #4C3A24",
"}  c #45382A",
"|  c #563F22",
" . c #443B36",
".. c #433E3A",
"X. c #493F3A",
"o. c #403732",
"O. c #3E433C",
"+. c #394236",
"@. c #5A4517",
"#. c #77501F",
"$. c #43423E",
"%. c #4C423D",
"&. c #46453B",
"*. c #594A36",
"=. c #5F513F",
"-. c #634622",
";. c #6D512F",
":. c #73532C",
">. c #614A31",
",. c #7D5B32",
"<. c #755738",
"1. c #3F4140",
"2. c #444443",
"3. c #4C4641",
"4. c #474847",
"5. c #494947",
"6. c #474948",
"7. c #4C4C4A",
"8. c #48454A",
"9. c #504641",
"0. c #534B46",
"q. c #534E4A",
"w. c #534749",
"e. c #4D514C",
"r. c #5A534E",
"t. c #585046",
"y. c #4E5150",
"u. c #535452",
"i. c #5C5652",
"p. c #5C5854",
"a. c #5C5C5B",
"s. c #675A4B",
"d. c #615A55",
"f. c #635E5A",
"g. c #625756",
"h. c #7D6444",
"j. c #7B6A41",
"k. c #6A6052",
"l. c #65615D",
"z. c #69615C",
"x. c #776959",
"c. c #7D705C",
"v. c #646463",
"b. c #6B6662",
"n. c #6B6966",
"m. c #6C6C6A",
"M. c #666867",
"N. c #716B66",
"B. c #726E6B",
"V. c #72726E",
"C. c #78726D",
"Z. c #737473",
"A. c #797673",
"S. c #7A7877",
"D. c #7B7C7A",
"F. c #777877",
"G. c #855A22",
"H. c #835F31",
"J. c #896537",
"K. c #916A39",
"L. c #807137",
"P. c #876841",
"I. c #916F41",
"U. c #997546",
"Y. c #A67B45",
"T. c #86786B",
"R. c #817B71",
"E. c #9B8F4B",
"W. c #AE8249",
"Q. c #B2844A",
"!. c #91846F",
"~. c #948774",
"^. c #AD9D64",
"/. c #B89465",
"(. c #B19A7C",
"). c #C19F76",
"_. c #C7A06D",
"`. c #807F80",
"'. c #858583",
"]. c #898583",
"[. c #8B8B89",
"{. c #8B8A87",
"}. c #998A85",
"|. c #94918E",
" X c #959491",
".X c #9B9895",
"XX c #9E9F9D",
"oX c #A19D9A",
"OX c #BCAB83",
"+X c #A4A3A1",
"@X c #ABA9A6",
"#X c #A9A7A4",
"$X c #B5B2AC",
"%X c #BCB1A3",
"&X c #BEBBB6",
"*X c #CDAD82",
"=X c #C2A987",
"-X c #CEB087",
";X c #D3B38B",
":X c #CDB492",
">X c #D5BB9A",
",X c #CAC0B3",
/* pixels */
"                                                                                                                                ",
"                                                                                                                                ",
"                                                                                                                                ",
"                                                                                                                                ",
"                                                                                                                                ",
"                                                                                                                                ",
"                                                                                                                                ",
"                                                                                                                                ",
"                                                                                                                                ",
"                                                                                                                                ",
"                                                          K     K                                                               ",
"                                                    K G !  .K I o.K K G G K                                                     ",
"                                                S E o.K %.t. .i.3.K I K I I D                                                   ",
"                                            D Q ! X.i.! %.f.t.N.0.E X. . .o.D K D                                               ",
"                                            D 3.t.r.b.%.g.N.s.N.t.o.w.%.9.9. . .D                                               ",
"                                            s ! g.f.0.%.N.N.b.z.9.K I K o. . . .D                                               ",
"                                            M P p.z. . .B.N.A.z.%.M M M R T Y E H                                               ",
"                                            a m 0.l. .&.z.d.C.z.%.I I I K M M m a                                               ",
"                                            9 m ~ ..R E r.3.z.q.X.g.p.d.%.M m m 9                                               ",
"                              9 9           j m ~ &.E ~ r.~ Q G K d.0.p.z.~ m S 9                                               ",
"                              0 @ 4         7 9 G E R E u.w.p.p.&.t.Q ! f.q.m a 7                                               ",
"                              W @ . .       5 L } M 9 M I a.oX&X$Xz.K M 3.3.T } 5                                               ",
"                              m . . . . . e n <.h.M s C %.g.T.%X,Xk.w./ m 0 *.P.Z                                               ",
"                                @ . . . . l ' ,.I.-.[ %.T.T.T.=X:Xh.c.].8.s ;.P.@.                                              ",
"                                    X . . z ] >.H.G.,.s.x.c.(.>X:XL.@.~.}.,.#.                                                  ",
"                                    . . . q N %.d.P.U./.=X=X:X>X>X^.E.OX).J.                                                    ",
"                                    @ X O 7 s 9 W *.;.Y._.*X-X;X;X;X*X/.J.V       8.F                                           ",
"                                  9 5 4 M 9.r...m + 1 @.K.U.W.Q.Q.Y.K.-.q X 8 2.m.D.4.S j j                                     ",
"                                  4 H m P p.v.5.J ; + H t.{ ] ] ] ] { n . @ S 7.m.F.4.S J 8                                     ",
"                                    j 2.8./ ^ U W S @ S 4.a.m.Z.r.} L 7 O < G R ^ ..2.2.H 8                                     ",
"                                    4 u.a./ U U / J X 4 Q Z.XX$X!.>.n # . 5 P J J Q 7.p.9                                       ",
"                                      H 8.m.V.v.1.4 . ; m / a.R.t.Z , O . O P i.b.p.4.H                                         ",
"                                      u a Q ..W 8 . @ S H S J ! m = , , # . < R &.Q j 5                                         ",
"                                      s 5 P ~ H < @ 4 Q 2.3.&.A N r [ V 1 O X 8 H m k i a                                       ",
"                                    4.J k ~ 1.P 4 @ 4 4 8 S C A v q , , # . . < m ~ O.S K j                                     ",
"                                    9 2.7.^ H S 9 @ * < 6 1 z c ` v q O . . + % j O.e.Q 4 @                                     ",
"                                    8 Q y.7.U a a < * g k b _ _ ) x w = o . # % S 7.7.Q 4                                       ",
"                                    S Q / 1.U P Q a < : h c ) ) x z , = O @ 5 < 4 P Q Q j                                       ",
"                                    0 4.y.S @ 4.M./ R n e , t t , , 1 7 i M ! E @ 0 8.y.j                                       ",
"                                    4 S F ; . ^ m.Z.q.9 , O # # # O < < Q a.m.l.Q 8 S F 0                                       ",
"                                      3 . . 9 ^ e.u.J X * * o o * - = = m 5.v.Z.A...4 @                                         ",
"                                      4 X . / u.6.R 7 ; - * - * - - g ; 4 J 4.m.[.].5.H                                         ",
"                                      n @ . S a.M.5.F F j : * o * : : O $ Q a.v.m. X|.p.                                        ",
"                                      Z & . 4 2.M.2.J e.1.: o . . : k 6 0 / v.a.a.'.+Xm.                                        ",
"                                      f # X ; 0 S 8 9 2.+.: . . . * g g 6 9 H 1.u.M.[. XM.                                      ",
"                                    B p $ @ 4 S U S j H F 7 X . X j m j 9 S ^ 6.u.p.v.'. XV.                                    ",
"                                    B % @ u 5 9 1.Z.'.V.5.9 X y O 7 2.b.!.F.a.a.M.v.f.v.'..XM.                                  ",
"                                    B $ @ d u @ S u.M.2.Q 7 X % X 4 R $.a.v.y.m.|.S.m.a.v.[.b.                                  ",
"                                    B # @ 5 3 X @ J W j S J @ & @ H H 0 U U S a.@X+XR.m.v.].v.                                  ",
"                                    f # X @ X X 4 2.m.1.Q 8 $ ( 1 4 U / M.u.9 H S.@X@X|.{.oXn.                                  ",
"                                    d $ X       @ S ^ 9 4 . O Z # . 4 0 U H ;     S..X X|. Xb.                                  ",
"                                      3           . ; 4 4 X @ 0 @ . ; 4 3 X @                                                   ",
"                                                  0 Q a.5.S ;   4 0 1.a.1.9                                                     ",
"                                                  G u.S.a.Q 8   4 J y.F.a.K s                                                   ",
"                                                  C } E S 9       9 S R } K                                                     ",
"                                                                                                                                ",
"                                                                                                                                ",
"                                                                                                                                ",
"                                                                                                                                ",
"                                                                                                                                ",
"                                                                                                                                ",
"                                                                                                                                ",
"                                                                                                                                ",
"                                                                                                                                "
};
