/* XPM */
static char *Screen_Shot_2023_01_22_at_16_02__resized[] = {
/* columns rows colors chars-per-pixel */
"64 64 172 2 ",
"   c None",
".  c #030403",
"X  c #090602",
"o  c #0B0C06",
"O  c #0F0709",
"+  c #0C0C0B",
"@  c #060D06",
"#  c #14070A",
"$  c #140A0B",
"%  c #1A0E0B",
"&  c #110B04",
"*  c #061304",
"=  c #081207",
"-  c #061B05",
";  c #0D130C",
":  c #0D1A0B",
">  c #131005",
",  c #1F1104",
"<  c #12130D",
"1  c #1B120B",
"2  c #161C0B",
"3  c #1E0E10",
"4  c #141413",
"5  c #1A1513",
"6  c #161A14",
"7  c #1C1915",
"8  c #171718",
"9  c #1A1B1A",
"0  c #281707",
"q  c #22140A",
"w  c #2B1C0C",
"e  c #221B0C",
"r  c #221C16",
"t  c #2C1B14",
"y  c #231E1A",
"u  c #261215",
"i  c #321A13",
"p  c #391E14",
"a  c #30181B",
"s  c #0B2008",
"d  c #12200E",
"f  c #132012",
"g  c #1C221B",
"h  c #33230D",
"j  c #3D280E",
"k  c #2D2615",
"l  c #24211D",
"z  c #2A221D",
"x  c #352412",
"c  c #3A2613",
"v  c #3E2911",
"b  c #332619",
"n  c #1F1E20",
"m  c #242423",
"M  c #2C2622",
"N  c #262924",
"B  c #2B2B25",
"V  c #292A29",
"C  c #332B26",
"Z  c #352E29",
"A  c #382F2A",
"S  c #2F302F",
"D  c #373021",
"F  c #34322C",
"G  c #3A322D",
"H  c #2F2E32",
"J  c #2F3030",
"K  c #343434",
"L  c #3C3631",
"P  c #363A35",
"I  c #3C3A35",
"U  c #38363A",
"Y  c #373938",
"T  c #3A3A3A",
"R  c #442D13",
"E  c #4A3114",
"W  c #563916",
"Q  c #5D3D15",
"!  c #553A18",
"~  c #403425",
"^  c #413D2A",
"/  c #403732",
"(  c #443B35",
")  c #443D39",
"_  c #493E39",
"`  c #654214",
"'  c #614218",
"]  c #5B4426",
"[  c #58442A",
"{  c #43413B",
"}  c #4A423D",
"|  c #4A493B",
" . c #56493E",
".. c #594C3F",
"X. c #6E4D24",
"o. c #685333",
"O. c #61503B",
"+. c #3F4140",
"@. c #434442",
"#. c #4E4642",
"$. c #4C4D4C",
"%. c #524A45",
"&. c #5C4F40",
"*. c #554E49",
"=. c #594F4B",
"-. c #585047",
";. c #5A524C",
":. c #54514D",
">. c #535453",
",. c #5C5651",
"<. c #5D5956",
"1. c #565958",
"2. c #5B5C5B",
"3. c #665A4D",
"4. c #625B56",
"5. c #645F5A",
"6. c #62605D",
"7. c #696459",
"8. c #746558",
"9. c #766B5C",
"0. c #7B6D5C",
"q. c #646462",
"w. c #676867",
"e. c #6D6E6D",
"r. c #716A66",
"t. c #727371",
"y. c #797774",
"u. c #787876",
"i. c #777A78",
"p. c #895D25",
"a. c #815E31",
"s. c #866131",
"d. c #946D3B",
"f. c #8F6F49",
"g. c #957345",
"h. c #9B7C52",
"j. c #A77A41",
"k. c #AB7D42",
"l. c #887867",
"z. c #85746C",
"x. c #877B72",
"c. c #B48851",
"v. c #94826E",
"b. c #8F8375",
"n. c #9E8976",
"m. c #A9906D",
"M. c #A18E7B",
"N. c #BFA27E",
"B. c #C09864",
"V. c #CBA675",
"C. c #CDA877",
"Z. c #CDAB7F",
"A. c #C5A273",
"S. c #838381",
"D. c #8D8C8A",
"F. c #91908E",
"G. c #949492",
"H. c #9B9B98",
"J. c #AC9A80",
"K. c #B19E83",
"L. c #B9A387",
"P. c #BEA88D",
"I. c #A5A6A3",
"U. c #B7B6B2",
"Y. c #C0A581",
"T. c #CFAE83",
"R. c #C4AC8B",
"E. c #D2B28A",
"W. c #C6AB90",
"Q. c #D3B793",
"!. c #D2B897",
"~. c #D7BB98",
/* pixels */
"                                                                                                                                ",
"                                                                                                                                ",
"                                                                                                                                ",
"                                                                                                                                ",
"                                                                                                                                ",
"                                                                                                                                ",
"                                                                                                                                ",
"                                                                                                                                ",
"                                                              C M M C                                                           ",
"                                                        C M M A B z G A M b B                                                   ",
"                                                    M M G M C _ C z ) _ C A A M M                                               ",
"                                                  M M Z } Z ( =.L C #._ A A A G Z M                                             ",
"                                                l Z #._ 5.%.#.4.} C %./ A Z / ( C y                                             ",
"                                              M M L ;.;.4.r.;.r.=.( #.G A / #.( y r 7                                           ",
"                                                B C L 4.#.5.%.,._ } ( A _ ( } G r 7 7                                           ",
"                                                  l B ) C } ;.} L _ A G #.( A M 7 9                                             ",
"                                                    B P F F *.,.{ ;.{ F L I G l g l                                             ",
"                                                    } 9.7.{ L 4.I 4.;.C B I L z l 9 9                                           ",
"                                                    3.J.b.%.F ,.I 6.;.F S F M r 6 1 7                                           ",
"                                                    9.L.x.#.B } G ;.} B B C M y l 1 7                                           ",
"                                                    m.Y.n.z.8.} B %.9.G r A C A B 1 7   y                                       ",
"                                                    N.E.L.l.0.4.) z.P.&... .z z y 5   8 8                                       ",
"                                                    N.E.R.n.v.M.M.W.!.f.h.O.3 r 7 7   4 n                                       ",
"                                                    h.A.T.E.E.Q.E.~.E.k.X.z 5 y y 9 < 9 U                                       ",
"                                                    o.g.B.V.C.Z.T.V.c.p.x 5 r k k ; 4 H                                         ",
"                                                      ] a.d.j.j.d.s.W h r K F e & . 4                                           ",
"                                                      :.D x v j h x 9 U @.2.-.r . . 1 b                                         ",
"                                                      i.S.q.K 9 9 K q.H.G.y.&.r . . 1 c                                         ",
"                                                      S.u.>.K 8 9 @.u.I.G.q.( z r c E                                           ",
"                                                      w.Y m 4 + 8 @.1.e.w.@.V Z ( [ ]                                           ",
"                                                    @.@.9 4 9 K V 2.$.U K K U F @.&.                                            ",
"                                                    8 9 V T 6.<.V Y e.G.t.T 9 4 V (                                             ",
"                                                    . ; P @.6.<.m 9 u.U.D.Y @ . y C u                                           ",
"                                                      + 4 8 B V 4 o g K N : . . 3 a 3 +                                         ",
"                                                        ; 8 S N o . . . * s = . . % i t                                         ",
"                                                      : ; 6 B l o $ < d s P m . . # i x                                         ",
"                                                      - - : 4 ; o > D | @.@.m + . . u x                                         ",
"                                                      @ * : : = = ; 7 m l 9 4 9 4 . , v x                                       ",
"                                                      4 + 4 o o ; < F ) n + V +.V o $ p x                                       ",
"                                                      + . o 4 4 7 2 ^ { m o Y +.V 9 # i x                                       ",
"                                                      o . q 2 2 : : : 7 4 + V @.@.V o 1 c a                                     ",
"                                                        & 0 0 o = = o + 8 K >.1.U 4 . % c x                                     ",
"                                                            w o : g g N @.>.U 8 < + o # p v                                     ",
"                                                            v 5 : f f 6 8 8 + + < 4 + $ i x                                     ",
"                                                          Q E C g g g ; 8 4 . +     5 + q x                                     ",
"                                                        ' ` R z T 2.$.H 8 @ . +       + % x                                     ",
"                                                        ` ` R 7 T w.>.V 8 . . +       + % x                                     ",
"                                                        ` ' R 7 9 @.J 4 + . . . + 4 3 + % i                                     ",
"                                                        W E R F m m m 8 8 + & 7 4 + + + # u                                     ",
"                                                        x R v l K 1.1.H 4 o t         @ O u                                     ",
"                                                        1 w w 8 8 J V 8 . .             +                                       ",
"                                                          $ . + K T 9 + . .                                                     ",
"                                                            + V t.e.+.V 9 @                                                     ",
"                                                              Y $.@.Y K n +                                                     ",
"                                                                                                                                ",
"                                                                                                                                ",
"                                                                                                                                ",
"                                                                                                                                ",
"                                                                                                                                ",
"                                                                                                                                ",
"                                                                                                                                ",
"                                                                                                                                ",
"                                                                                                                                ",
"                                                                                                                                "
};
