/* XPM */
static char *Screen_Shot_2023_01_22_at_16_02_52_removebg_preview_resized[] = {
/* columns rows colors chars-per-pixel */
"64 64 172 2 ",
"   c None",
".  c #030403",
"X  c #090602",
"o  c #0B0C06",
"O  c #0F0709",
"+  c #0C0C0B",
"@  c #060D06",
"#  c #14070A",
"$  c #140A0B",
"%  c #1A0E0B",
"&  c #110B04",
"*  c #061304",
"=  c #081207",
"-  c #061B05",
";  c #0D130C",
":  c #0D1A0B",
">  c #131005",
",  c #1F1104",
"<  c #12130D",
"1  c #1B120B",
"2  c #161C0B",
"3  c #1E0E10",
"4  c #141413",
"5  c #1A1513",
"6  c #161A14",
"7  c #1C1915",
"8  c #171718",
"9  c #1A1B1A",
"0  c #281707",
"q  c #22140A",
"w  c #2B1C0C",
"e  c #221B0C",
"r  c #221C16",
"t  c #2C1B14",
"y  c #231E1A",
"u  c #261215",
"i  c #321A13",
"p  c #391E14",
"a  c #30181B",
"s  c #0B2008",
"d  c #12200E",
"f  c #132012",
"g  c #1C221B",
"h  c #33230D",
"j  c #3D280E",
"k  c #2D2615",
"l  c #24211D",
"z  c #2A221D",
"x  c #352412",
"c  c #3A2613",
"v  c #3E2911",
"b  c #332619",
"n  c #1F1E20",
"m  c #242423",
"M  c #2C2622",
"N  c #262924",
"B  c #2B2B25",
"V  c #292A29",
"C  c #332B26",
"Z  c #352E29",
"A  c #382F2A",
"S  c #2F302F",
"D  c #373021",
"F  c #34322C",
"G  c #3A322D",
"H  c #2F2E32",
"J  c #2F3030",
"K  c #343434",
"L  c #3C3631",
"P  c #363A35",
"I  c #3C3A35",
"U  c #38363A",
"Y  c #373938",
"T  c #3A3A3A",
"R  c #442D13",
"E  c #4A3114",
"W  c #563916",
"Q  c #5D3D15",
"!  c #553A18",
"~  c #403425",
"^  c #413D2A",
"/  c #403732",
"(  c #443B35",
")  c #443D39",
"_  c #493E39",
"`  c #654214",
"'  c #614218",
"]  c #5B4426",
"[  c #58442A",
"{  c #43413B",
"}  c #4A423D",
"|  c #4A493B",
" . c #56493E",
".. c #594C3F",
"X. c #6E4D24",
"o. c #685333",
"O. c #61503B",
"+. c #3F4140",
"@. c #434442",
"#. c #4E4642",
"$. c #4C4D4C",
"%. c #524A45",
"&. c #5C4F40",
"*. c #554E49",
"=. c #594F4B",
"-. c #585047",
";. c #5A524C",
":. c #54514D",
">. c #535453",
",. c #5C5651",
"<. c #5D5956",
"1. c #565958",
"2. c #5B5C5B",
"3. c #665A4D",
"4. c #625B56",
"5. c #645F5A",
"6. c #62605D",
"7. c #696459",
"8. c #746558",
"9. c #766B5C",
"0. c #7B6D5C",
"q. c #646462",
"w. c #676867",
"e. c #6D6E6D",
"r. c #716A66",
"t. c #727371",
"y. c #797774",
"u. c #787876",
"i. c #777A78",
"p. c #895D25",
"a. c #815E31",
"s. c #866131",
"d. c #946D3B",
"f. c #8F6F49",
"g. c #957345",
"h. c #9B7C52",
"j. c #A77A41",
"k. c #AB7D42",
"l. c #887867",
"z. c #85746C",
"x. c #877B72",
"c. c #B48851",
"v. c #94826E",
"b. c #8F8375",
"n. c #9E8976",
"m. c #A9906D",
"M. c #A18E7B",
"N. c #BFA27E",
"B. c #C09864",
"V. c #CBA675",
"C. c #CDA877",
"Z. c #CDAB7F",
"A. c #C5A273",
"S. c #838381",
"D. c #8D8C8A",
"F. c #91908E",
"G. c #949492",
"H. c #9B9B98",
"J. c #AC9A80",
"K. c #B19E83",
"L. c #B9A387",
"P. c #BEA88D",
"I. c #A5A6A3",
"U. c #B7B6B2",
"Y. c #C0A581",
"T. c #CFAE83",
"R. c #C4AC8B",
"E. c #D2B28A",
"W. c #C6AB90",
"Q. c #D3B793",
"!. c #D2B897",
"~. c #D7BB98",
/* pixels */
"                                                                                                                                ",
"                                                                                                                                ",
"                                                                                                                                ",
"                                                                                                                                ",
"                                                                                                                                ",
"                                                                                                                                ",
"                                                                                                                                ",
"                                                                                                                                ",
"                                                          C M M C                                                               ",
"                                                  C M z A G z M G M M C                                                         ",
"                                              M M Z A Z _ ) z Z ( Z M G M z                                                     ",
"                                            M Z L D A A } #.M / =.( C #.Z M M                                                   ",
"                                            y C ) / C A / #.Z } 4.} %.5._ #.Z M                                                 ",
"                                          5 7 z ) #./ A G #.( *.r.;.r.4.,.,.L z m                                               ",
"                                          8 7 r G _ ( _ A ( } } 3.*.5.#.<.L C B                                                 ",
"                                            9 r M A / %.G D } / } ;._ C ) B l                                                   ",
"                                            g l l G I L Z } ,.{ ;.:.F S I B                                                     ",
"                                          9 9 l l L I B B =.6.T <.G { 7.9.{                                                     ",
"                                          5 < 7 r M F F G ;.6.I ,.G #.b.J.3.                                                    ",
"                                          5 1 l l z Z M B } ;.F } Z #.x.L.0.                                                    ",
"                                      l   5 5 M A Z A y G 8.%.m } 8.z.n.Y.m.                                                    ",
"                                      5 8   5 l M y  ...&.W.z.) ,.0.l.L.E.Y.                                                    ",
"                                      n 4   7 7 5 1 O.h.f.!.W.n.M.v.n.R.E.N.                                                    ",
"                                      U 9 < 9 y y 5 b X.k.E.~.Q.Q.E.E.T.A.h.                                                    ",
"                                        H 4 4 k k r 8 x p.c.V.T.T.V.V.m.g.o.                                                    ",
"                                          4 . > e Z K r h ! s.d.j.j.d.s.X.                                                      ",
"                                        b 1 . . r -.4.@.Y r k h j v x D :.                                                      ",
"                                        b , . . r ;.y.G.H.q.K 8 9 P q.S.u.                                                      ",
"                                          R c r z ( q.G.I.i.@.9 8 K >.u.S.                                                      ",
"                                          ] [ ( Z B { q.t.2.+.8 ; < l U w.                                                      ",
"                                            -.@.J U Y K U $.2.V H 9 4 9 @.@.                                                    ",
"                                            ) C 4 9 U t.F.e.P V 2.6.U J 9 8                                                     ",
"                                          u C y . @ P D.U.t.9 l >.6.@.P + .                                                     ",
"                                        + 3 a % . . ; N Y g + 4 V M 8 4 +                                                       ",
"                                        t i 3 . . * s * . . X ; B S 6 ;                                                         ",
"                                        x p # . . m P d d < > + l V 6 : :                                                       ",
"                                        x q X + @ n @.#.| D > o + ; d - -                                                       ",
"                                      x c 1 . 4 9 4 9 n M 8 ; * ; : : = @                                                       ",
"                                      b p # @ V +.V + g ( D 4 = + + ; + 4                                                       ",
"                                      x i # 8 V +.Y + m | L 6 9 4 4 O @ +                                                       ",
"                                    t p 1 + V @.@.m < 4 5 2 = d : 2 q X +                                                       ",
"                                    p R , . 4 T 1.>.Y 8 + @ = = o 0 0 &                                                         ",
"                                    x p # + + + 8 U >.+.V g f : > w                                                             ",
"                                    x i # + 4 < @ + 8 8 8 f f : 1 x                                                             ",
"                                    x 1 + 5     + . 4 8 ; g g g F E W                                                           ",
"                                    x , +       + . + 8 H $.2.+.z R ` `                                                         ",
"                                    b 1 +       + . . 8 V >.w.U 7 R ` `                                                         ",
"                                    i % + 3 4 + . . . + 4 J @.9 7 R ` `                                                         ",
"                                    u # + + + 4 7 > + 8 8 m m n F R E W                                                         ",
"                                    u O @         w + 4 J 1.1.K y v R x                                                         ",
"                                      <             . . 4 V K 8 < w w 1                                                         ",
"                                                    . . + 9 U K + X +                                                           ",
"                                                    + 9 V +.t.t.V +                                                             ",
"                                                    + 9 K Y @.$.U                                                               ",
"                                                                                                                                ",
"                                                                                                                                ",
"                                                                                                                                ",
"                                                                                                                                ",
"                                                                                                                                ",
"                                                                                                                                ",
"                                                                                                                                ",
"                                                                                                                                ",
"                                                                                                                                ",
"                                                                                                                                "
};
