/* XPM */
static char *floor_removebg_preview_resized[] = {
/* columns rows colors chars-per-pixel */
"60 64 43 1 ",
"  c None",
". c #16222B",
"X c #19242E",
"o c #1B2731",
"O c #1E2934",
"+ c #1F2B38",
"@ c #202B36",
"# c #222E3A",
"$ c #25313D",
"% c #28343F",
"& c #273340",
"* c #2A3643",
"= c #2D3946",
"- c #2E3B49",
"; c #303B47",
": c #313D4B",
"> c #34414E",
", c #364251",
"< c #394655",
"1 c #3B4857",
"2 c #3C4758",
"3 c #3E4A5A",
"4 c #414D5D",
"5 c #43505F",
"6 c #434F60",
"7 c #455262",
"8 c #495666",
"9 c #4A5867",
"0 c #4B5768",
"q c #4D5A6B",
"w c #505E6E",
"e c #515F70",
"r c #546272",
"t c #596676",
"y c #5A6877",
"u c #596778",
"i c #5D6A7B",
"p c #606E7E",
"a c #616F81",
"s c #637283",
"d c #687587",
"f c #647488",
"g c #697889",
/* pixels */
":wrifp99iisfp4pg3tpt3iisgfw9yiffi4sg4tiy7    sw9iisfp5yipdsr",
",9w9iw97r9881=wf37qw3qqqie07r9801=qs18qe38qqyr77r9004,8wqie9",
"#<44444:642=@@<9>138=<35444>441*@O10:<39=<44664,44<=@@,44455",
".$34467#:-@o@#40=-3,o$33475@:=#O@$40*:3,o#24375#:=#X@.$43450",
"X%%,;77=1,*;:;47-%*-@$%>-77=,<*->:37;$=-#$*,-07*<<*:>O$%,-79",
"X%@#*,,2wq40e:=4><=3#$O$*,,2ww40r:*3>,-3#$O#*,>3ww40e$$o$*,>",
"X;:%:<;,474<0#@&*338$->%:<;,46327#+**430$;:&:,->463<9#;>$><>",
"#8r<7r7=304,w#o.$359*8r,7r7=3q4,q$o.&349=8r<7r5=3q4,q=9r,5r9",
"=37-=<>X*,&*7%=$O137,37-=<:o=,%=7$=$+237:46-*<:o=,&=7:37-=<,",
":3q>=,*.oOO&4#O#O=27,3q>-,*XooO&3$O$o-37,4w:-,=Xoo@&4,4q>=,-",
"-492qy7$=##,3>49$O=-:3q3wu7#*#@,4:49$O*=:3q3wy5#=##:4,492etq",
"=37,373O#&@<7=<9,707:37,354O#&#<7*<9,798:37,373O#&#<7>37>357",
"#3q:<77#%*$,9=<9189w*3w:,77#*=#,9=29389q=3w:<77#*=#,q*2w:,79",
"O<9=>42<re1,9,4q:<37*,0=>43,ee<,8,49:247*,8=:43<re2,0%,0=>44",
"&:7:143=331,3-34=,,,->6:<53=432,3-34-,,2-,6:363-433,3=,7><55",
"O&&#=>*$=%*@&O****#=@$&#-:*$=$*@*O&*&*+*##&#=:*#=$*@&##$#=:-",
"=33677-<8,>33>133773-33576:<0>,45-235583:32555>17<,34:13457<",
",rq874=4sq3qr38qqttq3rqq76=4s949e38qqrrq3r9985%3s939w4qwq77>",
"=363:#X:72,38>>33537,233:@o:71:48>-33548>343-$o>72,37<<63,$o",
"O*-#O+@<7<$2<#X,335q$=-$O@@,7<$3<+O<334q$=-+OO+,72#32#&:&OOO",
"$11,*<-152$*=%$$,*1q=<2,;2;262&*=*$#,=1q-<3,=1-172$*==:3<*<:",
":9q93r1*,<,-2=++O&>,,0q04e<*,<,;1-++O*-,>9993r1*,<,:<<7qw<ww",
"=337,7-O$$237-*<*><<-338:0:O%%<47>*<=-<<-367>7;o$$<47<340,48",
"#379>9>OXO149>2r31ww*<5q:q:oXo<49>2r32ww*<7q>9>OXo238,:4w>49",
".$;;@4:%*O:37226<$>,o$>=#3>%=o:47<15<$>,O#:-+4:**O:47;@;:@,6",
".oo@#<:X$O%,6<285=<>ooX+#<-O#O$,7,395=<>oOoO#<-o#O&,7*XXO@;5",
"O=&@:3,1q>X%=*3757uw%*&+-3<1w>o&=*3757uw$**O-3<1q,o&;#$*#&<4",
"X###:7,=915qq,261<38#+$+-7>=7349q>172<38##$@-7>-034q9;@$$$47",
"@*;*=0,,7739w,,83>5q&==&-9>,776qq>,83-3q**;%=q,>7740e:*;;&48",
"=qw0-0,391,37:-71&35>qrq-9<201:68>-73*35:qr0-8,10<>37<4rw;44",
"@224:2:,3>-<,,-21>35&1<3>1:,4,;,>>-3<,78*224:3:,4,-,:::<4,<4",
"o=#=####***#&#&#$$>=+=$*+$##%&&#&#$##$-=@=$*####&**#*#*%*$#&",
"*772,44797,145771>88>373,37788,255773-88;473,44790,166773:43",
"-80q28wqi970w007>=rs<89q38qwuq78q077>=ea<0993898i950e877:,ww",
"$247&163471>43,&o$38=337*133371,43<&+#38=247&<44441,44,&@%47",
"X>2-.*34371@:$Ooo=37$>1-.*3320<+-*OoO-30$:2;X*4440<#;%@oOo,:",
"+**=#&*--03,43-3<>18*%*-$$*--03,33=1,><8=&*=#$=:-84:44=1,$&:",
"-<:3O$o#=,-4qq38q**3>1>3O$o#=,-5qq39q**3:,:4O$o#=>;499<0w,<4",
"-447#<<=13-247238o##-335#1<*<3-<39137O##;447#<,=,4;<47<47,48",
"-348=qq,7w<-3q<29o+X-378=qq>7r<-3q,18++X=440=9q>7r<;4w,49>78",
"$257>47*=,*o&:#-3$=$+135,37**,*X*>+;5$*##347,47*=,*X*:+:4=47",
"O-33,3w-,3*XoOO=3O+$o>35,5q><3*oOO+=4O@$O-34,4q:,3%XoO+=4#:4",
".+==,491rr1#=&#<5>89@+**>3q<er2#*$$,4>99@#=*,49<rr1$=#$<4@#%",
"-eq8:47:47,o@##45*18,eq8>37>38<o+$$35%10,wq7:47>37,O@$@35<r7",
"-097*3q=20<*-:$37=3q<997*3e=<81&->%37-3q,907*4q*10<%::$30<99",
"$345*<9*<6<3re,37,79=355&20$<5<1ew>37>49=437$10*<5<3rw>34;67",
"$<-1=,3-37,:13,,<-23=,-<-,4=28,-13,><=34=,:<->4-45>>33<,<=<4",
"$$+*+$$+=;$$&$$+&O$%%%#*++&+=-$$%%%+$O$%$$#&##$@=-$$&$$O*&%*",
">777w01177005:0q>585>578q811688q7:7w:474,580q02259795>579q01",
",799u975q074:*9s<78q18q8uq77e866:*9f<08w<80qu987w775:>099y90",
"+,44444:43,*+@37=<45&,44453>41<&@@<7;<44$<33353>41,*@O,43444",
".$33374@-*OXO*49&-1>X#13175+=&Oo@*4q*;4:X$23283+;%@o@.#14170",
"O&$:-76>57:13:27=&&-$&$>=76>66:11:<7;&*:#&$:=77,45:14#%%:*07",
"X#o@*:-29937q=*3>1>5++XO*:-1qq47w**4:<:4+$o#*:-2q947w@#X#*:-",
"@<4;26:,47338+O#*338#13>16>,28319@O@*440$,3=15,,474<8$<4-<4,",
"%7w:6e4*381,q#@.&539=8q,6e1=1q1,9#@.#449=0q,7q3*38<,w*7w,6w7",
"-58=*,*X$:#*6$*$+138>37=*>*X$-$*5$*$@147>37=&:*X#-#*6:46=&,-",
":3q><3-oOo+=3#@&o=13,3w><3-XOoO=5#@%o=<4,7w,<4-oOO@=4,4w,<3,",
">39<qr5#-&#,4>7r$O=*>3q<wr5$=$+,4>7e$@=*-30<wr4#=&#,4,3q<qr8",
"-37>273oO#+27&,0<wwq>18>333oO$+<7%,9,wr9>37,273o@#@27:40:367",
"$3q-<74*>,*<9-3q<78q*3w=<85*,,*<q-391779*2q=173*,,*,q&3w=,77",
"+<9*,42<rq<<7>49=135*,8*,3<<wq<<7,40-147*,9=<33,ww2<7$,8=,73",
"*:3:343=3<1><*23=,-,->3-171=322:<=24=,-,=,3-252=22<,<-,3-343",
"+&#+*-$#*#$O$O$$&$#*+#$+*-$#*#&O$o#&$&#*O$$+*=&#*+$O&O##@*-*"
};
